 <svg  version="1.0" xmlns="http://www.w3.org/2000/svg"  width="289.000000pt" height="450.000000pt" viewBox="0 0 289.000000 450.000000"  preserveAspectRatio="xMidYMid meet">  <g transform="translate(0.000000,450.000000) scale(0.100000,-0.100000)" fill="#079992" stroke="none"> <path d="M1292 4118 c-23 -18 -39 -38 -37 -45 2 -6 -7 -25 -20 -43 -13 -18 -21 -38 -18 -46 4 -12 8 -11 19 3 7 10 14 26 14 36 0 10 8 21 18 24 9 4 28 18 42 33 14 14 36 33 50 43 25 17 24 17 -8 2 -18 -9 -39 -14 -45 -11 -7 2 -5 5 4 5 9 1 22 8 29 16 22 26 -6 16 -48 -17z"/> <path d="M1161 4103 c-17 -20 -41 -38 -53 -40 -40 -6 -47 -11 -43 -33 2 -12 -1 -20 -10 -20 -9 0 -12 6 -8 16 5 14 3 15 -17 4 -18 -10 -20 -14 -9 -21 8 -5 10 -9 4 -9 -5 0 -18 -14 -28 -31 l-17 -31 39 31 c32 26 40 28 45 15 3 -8 2 -13 -2 -10 -4 2 -7 -7 -7 -20 0 -27 14 -33 17 -6 0 9 2 22 2 28 1 6 8 23 15 38 12 22 16 24 26 10 10 -14 16 -13 60 8 27 12 50 29 53 36 6 20 -14 14 -47 -14 -17 -14 -31 -22 -31 -17 0 4 9 14 20 21 21 13 28 38 8 26 -7 -4 0 7 16 24 22 24 26 32 14 32 -9 0 -30 -17 -47 -37z"/> <path d="M1386 4108 c-9 -13 -14 -16 -10 -8 4 8 -5 4 -19 -9 -28 -26 -38 -42 -12 -21 8 7 15 9 15 4 -1 -14 -26 -44 -38 -44 -6 0 -14 -4 -17 -10 -12 -19 14 -10 46 17 l32 27 -7 -25 -7 -24 20 23 c11 12 23 22 28 21 4 -1 10 0 13 1 21 8 50 4 55 -8 3 -9 0 -12 -9 -9 -8 3 -20 -1 -26 -9 -7 -8 -18 -14 -24 -14 -13 0 -56 -41 -56 -52 0 -10 50 -2 51 8 1 16 21 34 56 51 19 9 30 19 24 22 -6 4 -6 12 -1 21 8 12 10 12 16 -3 3 -9 10 -14 15 -11 5 3 7 10 4 15 -4 5 -1 9 4 9 6 0 11 -4 11 -10 0 -5 7 -10 15 -10 8 0 15 5 15 11 0 5 -4 8 -9 4 -5 -3 -12 -1 -16 5 -3 5 -15 10 -26 10 -11 0 -18 4 -15 8 3 5 -23 8 -57 6 -34 -1 -56 0 -49 3 6 2 12 9 12 14 0 16 -17 10 -34 -13z m44 -37 c0 -4 -15 -5 -32 -3 -28 4 -30 6 -13 12 21 8 45 3 45 -9z"/> <path d="M1573 4096 c27 -6 46 -14 42 -17 -3 -4 12 -2 34 4 54 15 37 23 -51 24 l-73 1 48 -12z"/> <path d="M1672 4065 c-23 -7 -49 -18 -57 -25 -8 -6 -19 -9 -24 -6 -6 4 -15 -3 -21 -15 -7 -13 -8 -19 -2 -15 6 3 14 2 17 -4 5 -8 11 -7 21 1 13 10 18 6 15 -13 0 -4 11 -2 26 5 20 9 23 13 10 15 -9 2 -17 7 -17 11 0 15 50 30 79 25 25 -5 29 -3 27 12 -4 24 -20 26 -74 9z"/> <path d="M1763 4046 c0 -8 6 -12 14 -9 7 3 13 9 13 14 0 5 -6 9 -13 9 -8 0 -14 -6 -14 -14z"/> <path d="M1250 3990 c-12 -23 -5 -26 16 -6 16 17 18 26 4 26 -5 0 -14 -9 -20 -20z"/> <path d="M1511 3990 c-13 -11 -21 -20 -18 -20 14 0 57 24 57 32 0 13 -13 9 -39 -12z"/> <path d="M1807 3990 c-26 -21 -42 -26 -33 -11 4 5 -3 7 -14 4 -11 -3 -23 -10 -26 -15 -4 -6 2 -7 16 -3 15 5 20 4 16 -4 -9 -15 21 -3 57 21 19 14 27 16 27 6 0 -7 16 -18 35 -24 19 -6 32 -7 29 -2 -4 5 10 6 31 2 27 -5 36 -4 31 5 -4 6 -16 11 -26 11 -13 0 -17 5 -14 15 10 25 -96 21 -129 -5z"/> <path d="M957 3972 c-10 -10 -14 -21 -11 -24 3 -4 1 -15 -5 -27 -14 -26 2 -36 24 -15 9 9 13 24 10 34 -3 10 -1 21 5 25 12 7 13 25 2 25 -5 0 -16 -8 -25 -18z"/> <path d="M1303 3975 c-9 -24 1 -27 20 -5 14 17 15 20 2 20 -9 0 -18 -7 -22 -15z"/> <path d="M1027 3956 c-9 -10 -22 -27 -29 -39 -10 -19 -9 -20 4 -10 8 7 17 10 21 7 7 -8 29 34 25 48 -2 6 -11 4 -21 -6z"/> <path d="M1817 3944 c6 -16 19 -18 27 -5 3 5 -3 11 -13 14 -14 3 -18 1 -14 -9z"/> <path d="M1962 3936 c7 -8 15 -12 17 -10 2 2 10 -4 17 -14 11 -14 13 -15 14 -1 0 20 -20 39 -42 39 -16 0 -17 -2 -6 -14z"/> <path d="M898 3896 c-22 -45 -22 -50 -4 -43 11 4 13 1 9 -11 -11 -30 -15 -34 -24 -21 -5 9 -10 5 -14 -13 -7 -29 1 -52 16 -43 5 3 7 0 4 -7 -3 -7 4 -28 16 -47 16 -27 23 -31 30 -20 9 14 10 93 1 84 -3 -3 -11 4 -19 15 -11 16 -11 24 2 52 15 32 15 32 11 5 -2 -19 2 -31 15 -37 26 -14 29 -13 27 13 -1 12 2 32 6 45 8 23 -3 29 -20 12 -13 -13 -30 4 -35 34 -3 15 -8 10 -21 -18z"/> <path d="M1832 3898 c2 -18 10 -23 36 -23 35 -1 39 18 4 23 -12 2 -22 8 -22 13 0 5 -5 9 -11 9 -6 0 -9 -10 -7 -22z"/> <path d="M1923 3876 c22 -17 22 -26 -2 -26 -11 0 -23 -5 -27 -11 -5 -8 8 -9 45 -4 43 6 51 4 51 -9 0 -9 5 -16 10 -16 6 0 10 -5 10 -10 0 -6 -13 -4 -29 5 -17 8 -32 11 -35 6 -3 -5 5 -12 19 -15 14 -4 25 -11 25 -17 0 -14 -72 -2 -81 13 -4 6 -12 7 -19 3 -8 -5 -1 -12 21 -22 73 -31 84 -40 108 -87 24 -47 24 -49 6 -62 -16 -12 -17 -18 -7 -39 15 -33 15 -35 -3 -35 -9 0 -15 -9 -15 -25 0 -37 -14 -31 -35 14 -22 50 -61 87 -100 95 -20 4 -25 3 -15 -3 8 -5 18 -8 21 -8 12 4 40 -26 54 -57 51 -112 57 -140 64 -291 5 -130 7 -143 14 -95 5 30 17 98 27 150 10 52 20 122 21 155 1 33 5 65 9 70 7 11 12 46 13 88 0 15 -14 50 -32 78 -30 49 -35 69 -12 54 6 -3 11 -13 11 -21 0 -8 5 -14 10 -14 44 0 -46 116 -107 136 -31 11 -35 11 -20 0z"/> <path d="M1350 3750 c0 -4 6 -13 14 -19 10 -9 15 -8 19 3 3 8 -2 16 -14 19 -10 3 -19 2 -19 -3z"/> <path d="M1135 3743 c-37 -10 -153 -83 -130 -83 4 0 21 6 38 14 18 8 40 17 50 20 10 3 15 10 12 16 -4 6 6 10 24 10 21 0 31 5 31 15 0 8 -1 14 -2 14 -2 -1 -12 -4 -23 -6z"/> <path d="M1188 3713 c-10 -2 -18 -9 -18 -14 0 -13 13 -11 36 6 19 14 14 17 -18 8z"/> <path d="M940 3691 c-6 -13 -7 -28 -1 -45 9 -22 13 -23 34 -13 24 11 24 12 7 27 -13 12 -16 20 -9 33 8 13 6 17 -5 17 -8 0 -20 -9 -26 -19z"/> <path d="M1450 3686 c0 -22 3 -27 11 -19 8 8 8 16 0 30 -9 16 -10 14 -11 -11z"/> <path d="M1554 3668 c-4 -7 -3 -8 4 -4 7 4 12 3 12 -2 0 -5 11 -12 25 -14 14 -3 25 -1 25 3 0 5 -9 9 -20 9 -11 0 -20 5 -20 10 0 14 -17 13 -26 -2z"/> <path d="M1013 3624 c-9 -15 -32 -33 -51 -41 -27 -11 -32 -18 -27 -36 4 -12 3 -17 -2 -12 -11 13 -36 18 -28 6 3 -6 -3 -15 -14 -21 -13 -6 -20 -20 -20 -38 1 -56 -4 -88 -14 -107 -10 -19 -9 -19 8 -5 11 8 28 24 39 35 24 23 88 153 81 164 -2 5 7 14 20 21 14 7 25 18 25 23 0 5 8 16 18 23 16 13 16 13 0 14 -10 0 -25 -12 -35 -26z m-90 -134 c-5 -20 -15 -25 -26 -13 -8 7 11 33 23 33 5 0 6 -9 3 -20z"/> <path d="M895 3627 c-12 -10 -15 -16 -6 -21 6 -4 18 -1 26 8 27 27 13 36 -20 13z"/> <path d="M870 3580 c0 -7 -7 -10 -14 -7 -11 4 -13 1 -9 -10 5 -12 3 -14 -7 -8 -8 5 -11 4 -7 -2 4 -6 -1 -17 -10 -24 -12 -10 -14 -10 -9 -1 4 6 4 17 1 23 -10 15 -34 -21 -35 -51 0 -20 2 -22 10 -10 8 13 10 13 10 -2 0 -9 -4 -20 -10 -23 -15 -9 -12 -88 4 -121 8 -16 24 -78 35 -138 24 -122 25 -126 49 -126 14 0 17 10 17 48 1 26 3 71 6 100 4 28 2 52 -2 52 -5 0 -9 -13 -9 -30 0 -22 -5 -30 -17 -29 -11 0 -13 3 -5 6 6 2 12 11 12 18 0 7 -6 15 -12 17 -7 3 -13 16 -13 31 -1 14 3 23 7 21 10 -6 11 10 1 19 -3 4 -16 -1 -27 -10 -13 -12 -17 -13 -10 -3 17 23 25 68 14 75 -5 3 -10 -1 -10 -9 0 -9 -4 -16 -10 -16 -19 0 -10 39 15 64 30 30 34 47 4 20 -21 -19 -21 -19 -18 11 3 31 31 81 56 102 9 7 11 13 4 18 -6 3 -11 1 -11 -5z"/> <path d="M945 3353 c4 -13 2 -24 -4 -24 -6 -1 -16 -2 -23 -3 -6 0 -13 -8 -15 -16 -4 -13 -3 -13 6 0 8 11 11 11 11 2 0 -8 7 -6 21 7 17 16 19 23 9 38 -10 16 -10 16 -5 -4z"/> <path d="M1082 3243 c-18 -9 -42 -29 -53 -44 l-20 -29 25 0 c14 0 26 4 26 9 0 29 132 37 181 10 9 -5 34 -11 55 -13 21 -3 40 -10 42 -16 6 -16 22 -12 44 13 l19 22 -4 -27 c-4 -29 6 -37 20 -15 11 18 13 38 2 31 -5 -3 -9 5 -9 17 0 22 0 22 -21 3 -12 -10 -24 -19 -28 -19 -3 0 -5 -3 -3 -7 5 -17 -11 -6 -47 33 -36 37 -42 40 -74 34 -20 -4 -41 -4 -48 1 -23 14 -75 13 -107 -3z"/> <path d="M1310 3243 c0 -11 32 -43 43 -43 4 0 7 7 7 16 0 9 -5 12 -12 8 -6 -4 -17 1 -25 11 -7 11 -13 14 -13 8z"/> <path d="M1750 3179 c-23 -18 -23 -20 -4 -14 27 7 39 -18 18 -36 -12 -9 -17 -10 -23 -1 -4 8 -10 6 -18 -7 -10 -16 -8 -18 15 -15 150 20 216 16 205 -11 -4 -11 2 -15 21 -15 24 0 26 3 20 28 -10 43 -34 60 -93 66 -29 3 -60 11 -67 17 -11 9 -19 8 -36 -7 -19 -17 -21 -17 -15 -1 8 21 8 21 -23 -4z"/> <path d="M1700 3167 c0 -14 4 -28 9 -31 5 -4 8 5 6 19 -3 35 -15 44 -15 12z"/> <path d="M1680 3167 c0 -9 -3 -16 -7 -16 -35 6 -46 -15 -13 -24 15 -4 22 1 26 19 4 14 4 28 0 31 -3 4 -6 -1 -6 -10z"/> <path d="M1414 3139 c-13 -22 11 -28 36 -9 l25 20 -27 0 c-15 0 -30 -5 -34 -11z"/> <path d="M1616 3104 c-8 -31 -1 -43 16 -26 7 7 26 12 43 12 21 0 26 3 16 9 -8 5 -20 7 -26 5 -7 -3 -15 2 -18 10 -9 24 -24 19 -31 -10z"/> <path d="M1083 3113 c-23 -2 -47 -10 -53 -18 -10 -12 -6 -13 22 -5 18 6 89 10 158 11 79 0 118 4 105 9 -20 9 -151 10 -232 3z"/> <path d="M756 3065 c-33 -30 -35 -89 -6 -184 11 -36 22 -83 25 -103 3 -21 9 -38 13 -38 4 0 6 -17 4 -38 -3 -33 1 -42 31 -69 29 -25 36 -40 46 -99 21 -118 41 -184 72 -235 16 -28 29 -54 29 -60 0 -5 7 -12 15 -15 11 -4 13 -17 9 -47 -8 -62 46 -157 128 -227 99 -84 218 -211 218 -234 0 -29 27 -116 41 -132 9 -11 21 1 56 58 25 40 51 77 59 81 8 4 14 17 14 28 0 11 25 45 56 77 62 62 121 138 155 199 12 21 42 65 67 98 46 61 142 241 142 268 0 8 12 50 26 93 22 65 28 103 32 219 3 94 9 146 18 159 9 13 12 34 8 60 -10 65 -24 66 -24 3 0 -46 -3 -55 -15 -51 -10 4 -15 0 -15 -14 0 -11 6 -23 13 -25 7 -3 5 -6 -5 -6 -10 -1 -18 -7 -18 -15 0 -8 -3 -21 -6 -30 -4 -10 -1 -16 8 -16 10 0 15 -14 17 -45 1 -27 -2 -45 -9 -45 -6 0 -8 -11 -4 -27 8 -37 5 -84 -5 -97 -5 -6 -16 -35 -26 -64 -9 -28 -21 -50 -26 -46 -5 3 -9 1 -9 -5 0 -5 5 -13 10 -16 8 -5 4 -52 -6 -64 -1 -2 -17 7 -33 19 -20 14 -29 16 -25 7 3 -8 16 -20 30 -27 26 -14 30 -25 14 -35 -14 -9 -52 -85 -43 -86 5 0 -5 -5 -20 -9 -16 -5 -39 -5 -51 0 -13 5 -29 4 -37 -1 -8 -5 -9 -9 -4 -10 53 -4 85 -24 77 -47 -5 -17 -22 -15 -22 3 0 8 -3 15 -7 15 -12 -1 -48 -30 -37 -30 5 0 2 -5 -6 -10 -13 -8 -12 -10 3 -10 18 0 24 -19 7 -21 -5 -1 -13 -2 -18 -3 -4 0 -18 -11 -32 -23 -19 -19 -21 -23 -7 -23 9 0 17 5 17 10 0 6 7 10 15 10 23 0 18 -13 -15 -35 -16 -11 -30 -26 -30 -34 0 -17 -67 -104 -135 -175 -26 -28 -56 -69 -67 -92 -11 -24 -26 -48 -34 -55 -8 -6 -14 -18 -14 -25 0 -12 -4 -12 -24 1 -15 10 -26 29 -30 54 -5 31 -23 54 -103 133 -54 53 -115 111 -136 129 -36 30 -102 121 -119 162 -18 44 7 29 84 -48 123 -122 198 -155 342 -151 50 2 102 6 116 8 14 3 29 6 34 7 5 0 6 4 3 8 -4 3 1 12 11 19 15 12 14 12 -8 8 -14 -3 -32 -8 -40 -11 -8 -4 -21 -5 -27 -4 -7 1 -13 -2 -13 -6 0 -4 -27 -9 -59 -10 -50 -3 -60 0 -64 15 -4 15 -5 15 -6 -2 -1 -11 -6 -16 -15 -13 -8 3 -31 9 -50 13 -20 3 -34 10 -31 14 2 4 -6 6 -19 5 -14 -2 -33 4 -43 13 -10 10 -25 18 -32 20 -8 2 -30 19 -48 37 -19 19 -38 35 -42 35 -3 0 -12 9 -18 19 -11 18 -10 20 15 17 28 -3 52 9 52 26 0 6 -7 7 -15 4 -10 -4 -19 2 -25 17 l-10 22 3 -24 c3 -32 -38 -49 -52 -22 -6 10 -7 22 -3 26 4 3 1 5 -6 3 -19 -4 -37 25 -28 47 4 11 13 15 25 12 13 -3 21 1 24 12 5 19 -19 58 -29 48 -4 -4 -1 -13 6 -22 11 -13 10 -15 -2 -10 -9 4 -19 -4 -28 -22 -11 -22 -14 -24 -17 -10 -3 9 -9 17 -14 17 -6 0 -7 9 -4 20 5 14 2 20 -9 20 -9 0 -16 5 -16 11 0 5 4 8 9 4 17 -10 -16 86 -33 97 -5 3 -10 21 -11 40 0 18 -3 38 -7 43 -3 6 -9 27 -13 47 -9 48 -30 109 -36 104 -2 -2 -4 8 -5 22 0 15 -2 59 -3 97 -4 89 14 221 34 252 14 21 14 23 -3 23 -10 0 -19 -6 -19 -12 -1 -7 -13 -57 -27 -112 -18 -67 -23 -102 -17 -110 6 -7 10 -47 10 -90 0 -66 -3 -75 -15 -65 -16 13 -19 45 -4 54 6 4 7 12 1 22 -4 9 -6 24 -4 34 3 11 0 25 -6 32 -6 8 -12 36 -15 63 -2 27 -9 62 -15 77 -17 44 -11 104 10 91 5 -3 6 2 3 10 -7 19 9 21 38 5 29 -16 37 0 9 22 -30 25 -43 24 -75 -6z"/> <path d="M1177 3070 c-20 -4 -47 -16 -60 -28 -19 -17 -24 -18 -35 -6 -7 8 -23 14 -37 14 -13 0 -25 5 -27 11 -7 20 -48 0 -48 -23 0 -18 4 -20 45 -14 24 4 52 3 62 -2 10 -5 36 -12 58 -16 31 -5 36 -4 23 4 -22 13 -23 36 -3 44 10 3 17 -3 21 -20 8 -29 32 -44 73 -44 23 0 31 5 32 18 0 9 2 27 3 40 2 16 -3 22 -18 23 -12 0 -28 2 -36 3 -8 1 -32 -1 -53 -4z m80 -32 c2 -21 -10 -24 -26 -5 -12 15 -8 24 12 24 7 0 14 -9 14 -19z m-37 -18 c0 -5 -7 -10 -15 -10 -8 0 -15 5 -15 10 0 6 7 10 15 10 8 0 15 -4 15 -10z"/> <path d="M1351 3054 c13 -14 25 -20 27 -15 4 13 -22 41 -39 41 -7 0 -2 -11 12 -26z"/> <path d="M1703 3063 c-15 -5 -18 -33 -4 -33 5 0 11 7 15 15 11 29 163 -10 188 -49 5 -7 8 -5 8 6 0 24 -35 44 -98 57 -56 12 -89 13 -109 4z"/> <path d="M1463 3053 c-46 -5 -60 -23 -17 -23 21 0 25 -4 19 -17 -3 -10 -9 -31 -11 -48 -4 -23 1 -17 21 23 25 53 26 53 68 50 40 -3 42 -5 39 -31 -5 -36 35 -144 55 -151 11 -5 13 -2 8 11 -12 32 -35 127 -35 145 0 13 8 18 33 19 32 1 32 1 -8 10 -54 13 -121 17 -172 12z"/> <path d="M915 3030 c3 -5 16 -10 28 -9 21 0 21 1 2 9 -28 12 -37 12 -30 0z"/> <path d="M1680 3020 c-43 -7 -29 -15 18 -11 16 1 22 -4 22 -17 0 -22 20 -42 47 -47 29 -4 34 4 17 31 -16 23 -42 36 -28 12 4 -7 3 -8 -4 -4 -21 12 -13 26 14 26 17 0 28 -6 31 -20 6 -24 12 -25 28 -3 7 9 17 13 23 9 21 -13 13 -32 -20 -49 -26 -12 -29 -16 -12 -16 11 -1 29 5 40 13 13 10 23 11 32 4 20 -17 25 -2 8 25 -30 45 -111 63 -216 47z"/> <path d="M2018 3023 c-34 -5 -36 -18 -5 -27 37 -10 47 -7 47 14 0 11 -3 19 -7 19 -5 -1 -20 -4 -35 -6z"/> <path d="M1334 2992 c6 -10 42 -9 52 1 4 4 -7 7 -25 7 -18 0 -30 -4 -27 -8z"/> <path d="M1415 2970 c-4 -6 -3 -16 3 -22 6 -6 12 -6 17 2 4 6 3 16 -3 22 -6 6 -12 6 -17 -2z"/> <path d="M1630 2968 c0 -4 16 -8 35 -8 19 0 35 2 35 4 0 2 -16 6 -35 8 -19 2 -35 0 -35 -4z"/> <path d="M1932 2963 c-6 -3 -10 -9 -6 -14 3 -5 1 -9 -3 -9 -5 0 -15 -16 -22 -35 -7 -19 -16 -35 -21 -35 -4 0 -10 -7 -14 -15 -3 -8 0 -15 7 -15 11 0 82 120 74 125 -1 1 -8 0 -15 -2z"/> <path d="M1295 2950 c3 -5 -3 -11 -12 -13 -15 -4 -15 -5 2 -5 11 -1 31 5 44 12 23 13 23 13 -8 14 -17 0 -29 -3 -26 -8z"/> <path d="M1372 2922 c-17 -17 -55 -38 -84 -47 -73 -24 -86 -39 -27 -32 51 7 114 39 123 63 3 9 13 14 21 10 20 -7 28 9 11 23 -11 10 -21 6 -44 -17z"/> <path d="M1660 2871 c0 -13 28 -33 41 -29 6 2 0 12 -15 21 -14 10 -26 13 -26 8z"/> <path d="M1672 2825 c9 -10 35 -19 63 -21 55 -5 53 12 -2 18 -21 3 -47 8 -58 13 -19 7 -19 7 -3 -10z"/> <path d="M1200 2820 c0 -5 14 -7 33 -3 45 8 47 13 4 13 -20 0 -37 -4 -37 -10z"/> <path d="M1835 2810 l-30 -6 29 -7 c16 -5 33 -4 38 1 14 14 -3 19 -37 12z"/> <path d="M1640 2745 c0 -22 30 -66 41 -59 5 3 0 14 -11 26 -11 12 -17 25 -14 29 2 4 0 10 -6 14 -5 3 -10 -1 -10 -10z"/> <path d="M1364 2723 c-12 -42 -11 -55 4 -88 13 -29 15 -30 82 -30 62 0 67 2 54 16 -11 12 -25 14 -64 9 -64 -8 -73 2 -64 69 7 55 1 68 -12 24z"/> <path d="M1619 2628 c-1 -2 -2 -15 -3 -29 -1 -18 2 -25 11 -22 7 3 13 9 13 13 0 5 3 15 6 24 4 11 1 16 -10 16 -9 0 -17 -1 -17 -2z"/> <path d="M1761 2587 c17 -32 19 -33 19 -10 0 12 -7 23 -15 27 -13 5 -14 2 -4 -17z"/> <path d="M1587 2547 c18 -20 18 -20 -9 -3 -31 20 -35 16 -36 -49 0 -46 0 -48 11 -22 12 31 34 35 52 10 7 -9 23 -17 36 -19 13 -1 24 -3 24 -4 0 -1 9 -3 19 -5 10 -2 22 -9 26 -15 4 -7 11 -11 16 -11 5 0 9 -7 10 -17 3 -46 4 -48 14 -32 12 19 2 60 -20 82 -10 9 -20 22 -22 29 -3 8 -11 10 -22 6 -10 -4 -14 -12 -10 -18 4 -8 3 -9 -5 -5 -6 4 -9 11 -6 15 7 12 -30 42 -40 34 -5 -5 -4 -1 2 7 10 13 6 17 -23 26 -34 11 -34 11 -17 -9z"/> <path d="M1426 2535 c6 -15 -8 -20 -48 -16 -9 1 -19 -3 -22 -8 -4 -6 -13 -8 -21 -4 -8 3 -15 1 -15 -5 0 -6 -8 -8 -19 -5 -16 4 -32 -13 -30 -33 0 -4 -4 -10 -9 -13 -11 -7 -15 -30 -13 -77 1 -37 28 -42 37 -7 7 27 5 27 51 8 45 -19 49 -19 32 2 -13 15 -11 15 26 7 50 -11 167 -12 218 -1 30 6 37 5 37 -7 0 -10 6 -13 15 -10 18 7 75 -53 68 -72 -2 -7 0 -15 6 -19 18 -11 13 48 -9 91 -10 21 -19 35 -20 30 0 -5 -7 -3 -15 4 -11 9 -33 9 -103 0 -90 -13 -242 -1 -283 21 -13 6 -22 4 -33 -7 -12 -11 -16 -12 -16 -2 0 15 56 50 83 53 11 1 23 8 28 16 8 13 13 6 10 -14 -1 -4 11 -5 26 -2 27 4 53 28 53 49 0 6 8 -4 16 -21 9 -18 23 -33 30 -33 19 0 18 19 -1 27 -14 5 -14 8 1 31 l16 25 -35 -7 c-21 -4 -38 -2 -42 4 -10 16 -25 12 -19 -5z"/> <path d="M992 2314 c0 -29 2 -33 14 -23 8 6 14 19 14 29 0 10 -6 20 -14 23 -10 4 -14 -3 -14 -29z"/> <path d="M1233 2310 c-3 -11 -9 -20 -14 -20 -5 0 -9 -8 -9 -18 0 -34 27 -19 37 20 6 24 7 38 1 38 -6 0 -12 -9 -15 -20z"/> <path d="M1416 2284 c-3 -8 -1 -14 4 -14 6 0 10 -7 10 -15 0 -8 7 -15 15 -15 8 0 15 -4 15 -8 0 -12 34 -11 42 2 4 6 9 4 14 -7 9 -24 27 -21 39 6 7 15 18 21 33 20 20 -3 21 -1 10 17 -11 16 -20 19 -59 14 -25 -3 -62 -1 -82 4 -28 8 -37 7 -41 -4z"/> <path d="M1165 2250 c-10 -11 -16 -22 -13 -25 3 -3 13 4 23 15 10 11 16 22 13 25 -3 3 -13 -4 -23 -15z"/> <path d="M880 2209 c0 -11 -5 -30 -12 -42 -7 -14 -12 -81 -13 -187 -1 -153 -3 -171 -29 -250 -16 -47 -37 -104 -47 -128 -23 -54 -49 -162 -39 -162 4 0 10 12 13 28 13 64 49 143 63 138 13 -5 21 26 15 58 -1 4 5 19 14 32 8 13 15 42 15 64 0 23 4 39 9 36 5 -3 14 15 21 40 10 36 10 65 0 150 -7 61 -9 133 -5 174 4 39 4 70 1 70 -3 0 -6 -9 -6 -21z"/> <path d="M1317 2135 c-4 -8 -2 -17 4 -20 5 -4 7 -10 4 -15 -3 -5 -1 -11 4 -14 5 -3 11 1 15 9 3 8 0 15 -5 15 -6 0 -9 9 -6 20 6 23 -8 27 -16 5z"/> <path d="M1420 2116 c0 -8 4 -17 9 -21 6 -3 9 4 8 15 -1 23 -17 28 -17 6z"/> <path d="M1805 2076 c-8 -40 1 -96 34 -201 13 -41 19 -52 20 -34 1 15 -6 46 -14 69 -18 52 -21 93 -4 70 9 -12 10 -12 5 3 -3 10 -6 21 -6 23 0 3 -5 2 -12 -2 -6 -4 -8 -3 -5 3 3 5 2 31 -2 59 l-8 49 -8 -39z"/> <path d="M1552 2075 c6 -14 13 -23 16 -21 7 7 -9 46 -18 46 -5 0 -4 -11 2 -25z"/> <path d="M1430 2072 c0 -12 41 -54 47 -49 6 7 -19 46 -34 51 -7 3 -13 2 -13 -2z"/> <path d="M2388 1973 c12 -2 32 -2 45 0 12 2 2 4 -23 4 -25 0 -35 -2 -22 -4z"/> <path d="M2569 1962 c-30 -32 -95 -169 -89 -187 5 -13 14 1 35 51 16 38 38 83 50 99 31 44 37 55 28 54 -4 0 -15 -8 -24 -17z"/> <path d="M1890 1821 c25 -77 52 -146 59 -155 7 -8 10 -24 6 -36 -4 -13 -2 -20 6 -18 14 4 72 -149 66 -174 -3 -10 -1 -16 4 -13 4 3 11 -7 15 -22 4 -15 10 -32 14 -38 4 -5 13 -28 20 -50 7 -22 21 -56 30 -75 22 -44 33 -103 17 -93 -7 4 -8 0 -3 -13 5 -10 12 -34 18 -51 10 -38 14 -40 21 -13 3 12 1 18 -5 14 -6 -4 -8 2 -3 15 7 24 -7 98 -37 181 -64 182 -153 420 -193 515 -25 61 -51 122 -57 138 -5 15 -13 27 -17 27 -4 0 14 -63 39 -139z"/> <path d="M1691 1891 c-7 -12 -9 -21 -6 -21 3 0 -2 -15 -11 -32 -15 -28 -15 -31 -2 -20 29 24 59 3 71 -49 5 -19 18 -31 50 -43 25 -9 49 -27 56 -39 7 -14 10 -15 6 -4 -3 10 -5 25 -5 33 0 8 -10 18 -23 23 -47 18 -84 60 -97 108 -16 61 -25 71 -39 44z"/> <path d="M1091 1867 c-11 -18 -23 -52 -27 -75 -5 -32 -15 -49 -38 -66 -30 -23 -90 -56 -101 -56 -3 0 -5 30 -5 66 0 78 -16 79 -19 1 -2 -63 13 -82 57 -73 15 4 40 18 55 31 14 14 31 25 36 25 13 0 41 52 41 75 0 9 9 34 19 55 24 49 10 62 -18 17z"/> <path d="M707 1856 c-3 -8 -23 -24 -44 -36 -26 -14 -30 -19 -13 -14 28 7 77 50 68 59 -3 3 -8 -1 -11 -9z"/> <path d="M1980 1835 c0 -6 11 -29 24 -52 14 -23 28 -52 31 -64 4 -13 16 -32 26 -43 21 -22 25 -41 7 -30 -10 6 -10 4 0 -8 10 -13 10 -17 0 -22 -7 -3 -2 -4 11 -3 14 1 26 -4 28 -13 4 -12 3 -12 -5 -1 -6 8 -12 9 -16 3 -23 -38 284 -472 334 -472 9 0 5 9 -12 28 -14 15 -36 47 -48 72 -20 40 -65 107 -81 120 -5 4 -88 137 -169 270 -15 25 -45 77 -66 115 -44 83 -64 113 -64 100z"/> <path d="M65 1789 c-27 -19 -27 -20 -6 -16 39 9 68 -9 105 -68 20 -30 36 -60 36 -65 0 -6 4 -10 9 -10 5 0 7 8 5 18 -7 23 -96 155 -109 159 -6 1 -23 -7 -40 -18z"/> <path d="M573 1793 c-18 -2 -33 -8 -33 -12 0 -10 69 -1 76 10 3 5 2 8 -3 7 -4 0 -23 -3 -40 -5z"/> <path d="M463 1773 c9 -2 25 -2 35 0 9 3 1 5 -18 5 -19 0 -27 -2 -17 -5z"/> <path d="M298 1763 c-26 -7 -3 -53 27 -53 6 1 1 7 -9 15 -29 22 -10 33 64 38 l65 3 -65 1 c-36 0 -73 -1 -82 -4z"/> <path d="M596 1717 c2 -7 14 -19 27 -26 21 -13 21 -12 -2 13 -27 29 -33 32 -25 13z"/> <path d="M2733 1649 c-7 -18 -11 -35 -8 -37 6 -6 27 48 23 60 -2 5 -9 -6 -15 -23z"/> <path d="M1790 1577 c-29 -42 -31 -47 -23 -47 9 0 46 61 40 66 -1 2 -9 -7 -17 -19z"/> <path d="M2845 1530 c-22 -22 -36 -40 -33 -40 11 0 83 69 77 74 -3 3 -23 -12 -44 -34z"/> <path d="M2825 1466 c-54 -53 -74 -68 -60 -46 3 6 2 10 -3 10 -11 0 -102 -96 -102 -107 0 -4 19 14 41 40 23 26 46 47 52 47 5 0 2 -10 -9 -21 -19 -22 -19 -22 1 -11 34 19 150 130 144 137 -4 3 -32 -19 -64 -49z"/> <path d="M685 1491 c-4 -12 -11 -18 -17 -15 -7 5 -9 1 -5 -8 3 -9 -3 -32 -14 -52 -14 -26 -15 -34 -5 -30 16 6 62 111 53 120 -3 3 -8 -4 -12 -15z"/> <path d="M2615 1435 c-9 -26 -14 -49 -11 -52 3 -3 7 0 10 8 2 8 9 29 15 48 17 51 6 48 -14 -4z"/> <path d="M0 1464 c0 -20 107 -183 150 -229 26 -27 68 -77 95 -110 26 -33 50 -59 54 -57 3 2 7 -2 10 -9 2 -7 -1 -9 -9 -4 -9 5 -11 4 -6 -4 4 -6 11 -9 16 -6 5 3 13 -3 19 -12 6 -10 11 -13 11 -6 0 13 -86 115 -178 212 -29 31 -67 81 -85 111 -40 71 -77 125 -77 114z"/> <path d="M2422 1450 c7 -11 18 -22 25 -24 19 -8 5 18 -17 32 -19 11 -19 11 -8 -8z"/> <path d="M1510 1443 c0 -12 5 -25 10 -28 6 -3 10 -21 10 -38 0 -18 5 -39 10 -47 19 -30 10 55 -10 95 -15 29 -20 34 -20 18z"/> <path d="M2678 1396 c-78 -84 -73 -88 7 -8 36 36 65 67 65 69 0 12 -23 -8 -72 -61z"/> <path d="M2292 1418 c3 -7 15 -15 28 -16 21 -3 22 -2 11 12 -16 19 -44 21 -39 4z"/> <path d="M2110 1411 c0 -5 7 -14 15 -21 8 -7 15 -20 16 -29 0 -9 3 -11 5 -5 6 15 -13 64 -26 64 -5 0 -10 -4 -10 -9z"/> <path d="M561 1296 c-63 -107 -91 -162 -91 -178 0 -7 23 28 51 77 29 50 63 109 76 133 14 24 23 45 20 48 -3 3 -28 -33 -56 -80z"/> <path d="M1440 1351 c-18 -5 -21 -9 -11 -15 8 -5 19 -2 29 8 9 9 14 16 12 15 -3 -1 -16 -4 -30 -8z"/> <path d="M1636 1352 c-3 -6 -1 -14 5 -17 15 -10 25 3 12 16 -7 7 -13 7 -17 1z"/> <path d="M1482 1331 c4 -13 18 -16 19 -4 0 4 -5 9 -11 12 -7 2 -11 -2 -8 -8z"/> <path d="M2413 1245 c31 -30 61 -55 65 -55 4 0 -19 25 -52 55 -32 30 -61 55 -65 55 -3 0 20 -25 52 -55z"/> <path d="M2621 1269 c-10 -17 -22 -56 -26 -87 -10 -81 -15 -87 -35 -50 -18 34 -40 49 -40 26 0 -7 18 -40 40 -72 48 -70 56 -96 42 -135 -6 -17 -7 -44 -2 -66 6 -28 5 -38 -6 -42 -16 -6 -19 -33 -4 -33 5 0 14 9 20 20 17 32 30 24 19 -12 -8 -29 -4 -44 42 -133 29 -55 60 -111 70 -125 9 -14 20 -49 23 -79 3 -30 12 -61 21 -71 8 -9 15 -29 15 -43 0 -17 5 -27 15 -27 8 0 14 -5 12 -11 -1 -6 3 -13 9 -15 17 -7 10 73 -9 94 -9 10 -17 23 -17 29 0 6 -5 13 -11 15 -7 2 -13 17 -15 33 l-3 30 25 -29 c38 -43 41 -23 3 22 -18 22 -65 93 -105 158 -80 133 -78 158 6 80 27 -25 54 -46 61 -46 6 0 -2 12 -18 28 -16 15 -42 50 -58 77 -16 28 -42 63 -57 79 -32 34 -36 61 -11 75 14 7 15 12 5 23 -6 8 -10 17 -7 20 3 3 -3 24 -14 47 -17 40 -18 47 -4 109 9 37 21 84 28 105 15 45 11 47 -14 6z"/> <path d="M391 1225 c1 -48 1 -49 9 -15 5 19 4 41 0 50 -6 10 -9 -1 -9 -35z"/> <path d="M2815 1204 c-48 -18 -54 -23 -32 -23 29 -1 93 24 103 40 7 12 -2 10 -71 -17z"/> <path d="M290 1186 c0 -8 5 -18 10 -21 6 -3 10 3 10 14 0 12 -4 21 -10 21 -5 0 -10 -6 -10 -14z"/> <path d="M1362 1175 c0 -16 4 -43 8 -60 l8 -30 0 30 c0 17 -4 44 -8 60 l-8 30 0 -30z"/> <path d="M1596 1182 c-3 -6 -1 -14 5 -17 15 -10 25 3 12 16 -7 7 -13 7 -17 1z"/> <path d="M50 1134 c30 -19 66 -37 80 -41 14 -3 54 -23 88 -45 35 -22 66 -37 69 -35 8 9 -104 77 -168 102 -34 14 -72 32 -85 40 -13 8 -27 15 -31 15 -4 0 17 -16 47 -36z"/> <path d="M2215 1135 c23 -67 29 -81 37 -90 11 -12 -17 69 -32 93 -10 15 -11 15 -5 -3z"/> <path d="M1482 1107 c18 -18 58 -23 58 -7 0 6 -9 10 -19 10 -11 0 -28 3 -38 7 -17 6 -17 6 -1 -10z"/> <path d="M1592 1070 c0 -19 2 -27 5 -17 2 9 2 25 0 35 -3 9 -5 1 -5 -18z"/> <path d="M336 988 c4 -13 7 -34 7 -48 -1 -14 9 -39 22 -55 12 -17 26 -49 30 -73 6 -40 20 -60 32 -49 3 3 1 12 -3 19 -16 25 -43 113 -50 159 -4 30 -13 50 -26 58 -18 11 -19 10 -12 -11z"/> <path d="M1520 995 c-15 -8 -19 -14 -10 -14 18 -1 46 16 40 23 -3 2 -16 -2 -30 -9z"/> <path d="M2270 993 c0 -16 40 -125 51 -137 10 -11 -1 35 -12 50 -5 5 -6 19 -3 30 3 12 -3 30 -15 45 -11 13 -20 19 -21 12z"/> <path d="M1445 970 c-18 -8 -17 -9 8 -9 16 -1 26 3 22 9 -3 6 -7 10 -8 9 -1 0 -11 -4 -22 -9z"/> <path d="M1614 873 c3 -10 8 -31 12 -46 5 -21 9 -26 18 -17 7 7 7 13 1 18 -6 4 -10 19 -10 35 1 16 -4 27 -13 27 -8 0 -11 -7 -8 -17z"/> <path d="M1470 794 c-24 -14 -21 -15 42 -11 38 1 73 8 80 15 18 18 -91 15 -122 -4z"/> <path d="M2245 799 c-10 -15 0 -21 27 -17 l23 3 -22 13 c-15 8 -24 9 -28 1z"/> <path d="M1036 781 c-5 -7 -18 -17 -30 -22 -17 -8 -16 -8 9 -3 36 7 38 9 33 25 -4 11 -6 11 -12 0z"/> <path d="M2345 758 c8 -18 19 -32 26 -30 6 1 17 -3 25 -9 10 -8 14 -8 14 0 0 6 -5 11 -11 11 -6 0 -9 7 -5 15 3 9 0 15 -8 15 -7 0 -19 7 -26 15 -21 26 -30 16 -15 -17z"/> <path d="M2553 723 c-24 -26 -42 -48 -40 -49 1 -1 14 0 28 3 17 3 33 17 44 37 29 54 12 59 -32 9z"/> <path d="M1464 735 c11 -8 26 -15 33 -15 22 0 14 8 -19 19 -30 10 -31 9 -14 -4z"/> <path d="M540 721 c0 -7 -8 -10 -19 -6 -10 3 -29 1 -42 -4 -19 -8 -12 -10 39 -10 41 -1 62 3 62 11 0 6 -3 8 -7 5 -3 -4 -12 -2 -20 4 -10 9 -13 8 -13 0z"/> <path d="M1418 723 c-2 -5 -1 -28 3 -53 l6 -45 1 53 c2 48 -2 63 -10 45z"/> <path d="M1641 678 c4 -24 8 -59 9 -78 0 -24 6 -39 20 -48 20 -12 20 -12 5 24 -18 44 -20 115 -3 132 9 9 6 12 -14 12 -24 0 -25 -1 -17 -42z"/> <path d="M1550 692 c0 -5 7 -13 16 -16 10 -4 14 -1 12 6 -5 15 -28 23 -28 10z"/> <path d="M2381 651 c10 -29 41 -39 46 -16 1 6 -7 9 -17 7 -13 -2 -20 2 -20 12 0 8 -4 17 -10 21 -5 3 -5 -7 1 -24z"/> <path d="M660 650 c-1 -14 -4 -19 -7 -12 -2 6 -11 12 -20 12 -25 0 -8 -25 20 -28 29 -4 67 13 67 29 0 6 -6 7 -17 0 -13 -7 -21 -5 -30 7 -11 15 -12 14 -13 -8z"/> <path d="M2621 658 c0 -10 -5 -18 -10 -18 -5 0 -11 -23 -15 -51 -4 -28 -11 -58 -15 -67 -42 -84 -40 -104 28 -306 28 -82 51 -165 51 -183 0 -23 5 -33 15 -33 13 0 15 8 10 38 -8 44 -81 266 -101 304 -20 39 -18 71 17 180 17 54 28 110 26 126 -2 15 -5 19 -6 10z"/> <path d="M412 610 c0 -19 2 -27 5 -17 2 9 2 25 0 35 -3 9 -5 1 -5 -18z"/> <path d="M668 613 c-35 -5 -37 -35 -6 -58 21 -14 24 -14 35 2 14 18 18 64 6 62 -5 -1 -20 -4 -35 -6z"/> <path d="M2446 591 c-4 -5 -1 -20 4 -33 10 -22 10 -22 5 5 -3 15 -1 27 5 27 10 0 14 -14 11 -39 -2 -7 2 -10 8 -6 6 3 11 17 11 31 0 17 -5 24 -19 24 -11 0 -22 -4 -25 -9z"/> <path d="M2410 576 c0 -15 18 -31 26 -23 7 7 -7 37 -17 37 -5 0 -9 -6 -9 -14z"/> <path d="M1520 570 l-45 -5 42 -8 c44 -7 106 5 67 14 -10 2 -39 2 -64 -1z"/> <path d="M1652 525 c0 -42 22 -102 32 -87 4 7 2 19 -4 27 -6 8 -10 18 -7 22 3 4 -1 22 -8 38 l-13 30 0 -30z"/> <path d="M415 450 c-5 -34 -20 -72 -42 -107 l-35 -55 29 4 28 3 3 -69 c3 -66 1 -71 -38 -128 -22 -32 -40 -69 -40 -81 1 -19 3 -18 14 8 7 17 24 44 38 60 48 57 51 71 43 185 -7 108 2 143 23 96 6 -13 25 -41 43 -62 19 -22 24 -30 11 -20 -12 11 -22 15 -22 10 1 -14 52 -69 83 -89 15 -9 27 -24 27 -32 0 -8 5 -11 11 -8 5 4 33 -17 61 -47 60 -62 95 -88 123 -88 11 0 33 -7 49 -15 34 -18 39 -19 30 -3 -5 8 -2 9 12 2 26 -12 654 -18 654 -6 0 6 -117 10 -287 10 -159 -1 -301 2 -318 6 -16 3 -44 8 -60 10 -84 11 -112 26 -204 113 -50 49 -99 100 -109 114 -9 15 -38 57 -64 94 -33 48 -45 74 -42 92 3 13 0 31 -5 40 -6 12 -11 3 -16 -37z"/> <path d="M797 485 c-7 -16 27 -15 56 1 16 9 13 11 -16 12 -22 1 -37 -4 -40 -13z"/> <path d="M2788 306 c-10 -7 -18 -18 -18 -25 0 -6 -6 -10 -12 -8 -20 3 -22 -42 -3 -49 25 -10 94 16 101 38 8 26 -3 35 -26 20 -16 -10 -19 -8 -22 13 -3 21 -5 22 -20 11z m12 -47 c0 -11 -4 -17 -10 -14 -5 3 -10 15 -10 26 0 11 5 17 10 14 6 -3 10 -15 10 -26z"/> <path d="M2870 268 c0 -7 5 -20 10 -28 8 -12 10 -9 10 13 0 15 -4 27 -10 27 -5 0 -10 -6 -10 -12z"/> <path d="M2138 232 c-6 -15 -95 -61 -103 -54 -5 4 -5 1 -1 -6 5 -8 -4 -17 -26 -27 -23 -10 -27 -14 -13 -14 11 0 38 8 60 19 22 11 44 19 48 20 11 0 53 40 43 40 -5 0 -3 7 4 15 8 9 8 15 2 15 -6 0 -12 -4 -14 -8z"/> <path d="M527 188 c2 -13 13 -35 24 -48 19 -25 19 -25 1 18 -23 51 -31 61 -25 30z"/> <path d="M2418 96 c-56 -60 -83 -96 -71 -96 17 0 132 136 122 143 -2 2 -25 -20 -51 -47z"/> <path d="M1846 113 c-3 -4 -12 -8 -19 -9 -33 -5 -106 -26 -139 -41 -37 -16 -50 -44 -28 -58 6 -4 9 -1 8 6 -4 18 120 79 160 79 12 0 24 5 27 11 8 12 1 22 -9 12z"/> <path d="M1580 10 c0 -5 7 -10 15 -10 8 0 15 5 15 10 0 6 -7 10 -15 10 -8 0 -15 -4 -15 -10z"/> </g> </svg> 