<?xml version="1.0" standalone="no"?>
<!DOCTYPE svg PUBLIC "-//W3C//DTD SVG 20010904//EN"
 "http://www.w3.org/TR/2001/REC-SVG-20010904/DTD/svg10.dtd">
<svg version="1.0" xmlns="http://www.w3.org/2000/svg"
 width="300.000000pt" height="467.000000pt" viewBox="0 0 300.000000 467.000000"
 preserveAspectRatio="xMidYMid meet">
<metadata>
Created by potrace 1.10, written by Peter Selinger 2001-2011
</metadata>
<g transform="translate(0.000000,467.000000) scale(0.100000,-0.100000)"
fill="#000000" stroke="none">
<path d="M1337 4272 c-26 -20 -43 -38 -37 -40 6 -2 1 -16 -10 -32 -11 -15 -20
-33 -20 -40 0 -6 -4 -9 -9 -6 -5 4 -7 -2 -4 -12 6 -25 38 -25 60 0 16 19 16
21 1 15 -24 -9 -29 4 -12 33 7 15 13 19 14 10 0 -8 10 -1 23 17 12 18 36 40
54 50 38 20 37 28 -1 14 -34 -14 -33 -6 2 13 23 13 24 15 7 15 -11 0 -41 -16
-68 -37z"/>
<path d="M1211 4263 c-19 -23 -46 -42 -69 -48 -29 -9 -37 -15 -36 -33 1 -12
-4 -22 -11 -22 -8 0 -22 -2 -32 -5 -11 -3 -9 -1 5 6 12 7 22 19 22 27 0 12 -6
10 -24 -7 -14 -13 -22 -29 -20 -36 3 -7 -2 -19 -10 -28 -31 -30 -15 -28 25 4
23 18 40 26 39 18 -1 -8 -2 -25 -1 -39 l2 -25 10 23 c5 13 6 28 3 33 -3 5 3
20 14 33 16 21 20 22 28 9 8 -14 15 -13 55 5 51 23 82 52 57 52 -8 0 -25 -9
-38 -20 -13 -11 -28 -20 -34 -20 -6 0 0 9 13 19 14 11 22 25 19 33 -4 8 2 20
13 26 10 7 19 17 19 22 0 20 -19 9 -49 -27z"/>
<path d="M1453 4283 c-7 -2 -13 -11 -13 -19 0 -8 -6 -14 -13 -14 -7 0 -22 -7
-33 -16 -16 -13 -16 -15 -1 -10 9 3 17 2 17 -2 -1 -12 -27 -42 -37 -42 -6 0
-17 -7 -24 -17 -13 -15 -12 -15 17 0 17 9 36 23 43 31 8 9 18 16 23 16 6 0 5
-7 -2 -15 -19 -23 4 -18 26 6 10 11 26 18 35 16 9 -2 24 0 33 5 10 6 16 5 16
-2 0 -5 0 -12 0 -15 0 -3 -2 -5 -5 -5 -11 0 -72 -37 -94 -57 -42 -39 -3 -34
51 7 29 22 56 40 61 40 4 0 7 10 7 23 1 19 2 20 13 6 9 -12 19 -14 45 -7 17 5
32 11 32 15 0 3 -15 3 -32 -1 -24 -4 -29 -3 -18 4 13 9 13 10 0 11 -8 1 -19 1
-23 0 -5 -1 -6 3 -2 9 9 14 -8 13 -23 -2 -9 -9 -12 -9 -12 1 0 10 -11 12 -46
7 -41 -5 -44 -4 -30 10 24 23 19 30 -11 17z"/>
<path d="M1590 4258 c0 -6 9 -8 20 -5 11 3 20 1 20 -5 0 -6 15 -8 35 -6 19 2
35 1 35 -3 0 -4 9 -5 20 -2 36 10 21 23 -27 24 -27 1 -60 3 -75 5 -16 1 -28
-2 -28 -8z"/>
<path d="M1722 4216 c-23 -8 -49 -19 -56 -25 -7 -6 -15 -8 -19 -5 -3 3 -10 -3
-15 -13 -9 -16 -7 -19 14 -21 13 -1 24 4 24 11 1 7 6 5 14 -6 11 -13 19 -15
37 -8 l24 10 -25 1 -25 1 25 20 c19 16 33 19 61 15 32 -5 37 -3 35 12 -4 22
-39 25 -94 8z"/>
<path d="M1870 4135 c-40 -30 -29 -33 18 -5 21 13 32 16 32 7 0 -7 16 -17 35
-23 19 -6 32 -7 29 -2 -3 5 14 5 37 2 31 -5 40 -4 35 4 -4 7 -19 12 -33 12
-21 0 -24 2 -13 15 11 13 5 15 -47 15 -47 0 -66 -5 -93 -25z"/>
<path d="M998 4128 c-16 -13 -36 -98 -22 -98 13 0 33 35 34 57 0 12 5 25 10
28 12 7 13 25 2 25 -5 0 -15 -6 -24 -12z"/>
<path d="M1067 4106 c-21 -21 -40 -56 -31 -56 4 0 13 8 20 18 13 16 14 16 8
-3 -3 -12 2 -8 11 8 20 35 15 56 -8 33z"/>
<path d="M2040 4083 c14 -9 28 -21 32 -27 12 -19 20 2 8 23 -7 13 -21 21 -38
21 l-26 0 24 -17z"/>
<path d="M940 4061 c-5 -11 -10 -27 -10 -35 0 -9 -5 -16 -11 -16 -5 0 -7 -5
-4 -10 4 -6 10 -8 15 -5 5 3 4 -8 -1 -25 -12 -34 -24 -42 -14 -9 5 15 4 19 -4
15 -20 -13 -11 -66 20 -114 17 -26 29 -37 26 -25 -3 15 -1 20 9 16 18 -7 18
-1 -3 42 -11 24 -19 31 -25 23 -8 -15 -3 39 7 73 10 31 25 3 18 -32 -3 -15 0
-35 6 -46 10 -15 11 -12 5 17 -6 30 -5 33 8 22 13 -10 16 -8 20 13 3 14 1 25
-5 25 -7 0 -7 4 1 12 7 7 12 19 12 28 -1 12 -3 12 -14 -3 -13 -17 -15 -17 -29
4 -9 12 -13 28 -10 35 8 21 -5 17 -17 -5z"/>
<path d="M1900 4050 c0 -23 42 -50 48 -31 2 6 8 9 13 5 5 -3 9 -1 9 5 0 6 -11
13 -25 17 -14 3 -25 10 -25 15 0 5 -4 9 -10 9 -5 0 -10 -9 -10 -20z"/>
<path d="M2020 4005 c-7 -8 -15 -13 -19 -11 -3 2 -15 -2 -26 -10 -18 -13 -18
-14 7 -14 15 0 30 4 33 10 10 16 50 5 53 -15 3 -14 -1 -17 -22 -11 -14 3 -26
2 -26 -3 0 -5 11 -12 25 -15 14 -4 23 -11 20 -16 -3 -5 -11 -7 -18 -5 -7 2
-25 6 -40 9 -15 4 -25 11 -22 16 10 16 -11 11 -25 -5 -10 -12 -9 -15 7 -15 11
0 23 -3 27 -7 3 -4 17 -8 29 -10 12 -2 28 -11 35 -21 41 -56 62 -96 57 -110
-3 -8 0 -19 7 -23 7 -4 9 -11 5 -15 -4 -4 -14 1 -22 12 -13 17 -14 17 -15 2 0
-9 5 -29 10 -43 9 -23 8 -26 -5 -21 -11 4 -15 -1 -15 -19 0 -43 -19 -37 -44
14 -26 50 -61 82 -104 96 -23 7 -24 7 -5 -12 10 -11 23 -18 30 -15 17 5 38
-32 74 -128 29 -77 32 -98 35 -218 4 -141 -3 -183 -24 -137 -9 19 -19 25 -44
26 -51 1 -91 9 -105 21 -10 8 -19 6 -35 -8 -19 -17 -21 -17 -15 -1 4 9 2 17
-3 17 -6 0 -10 -5 -10 -10 0 -6 -5 -9 -11 -8 -6 2 -14 -3 -16 -10 -3 -7 1 -10
10 -7 7 3 20 -1 27 -9 10 -13 10 -17 -3 -22 -29 -11 -27 -31 1 -27 87 12 162
14 162 3 0 -6 4 -9 9 -6 5 3 11 -2 13 -12 3 -10 15 -18 26 -19 17 -1 22 4 22
25 1 15 10 77 21 137 11 61 24 144 30 185 5 41 17 111 25 156 14 77 14 82 -6
125 -11 24 -27 53 -35 63 -21 27 -21 53 0 36 8 -7 15 -19 15 -26 0 -8 5 -14
10 -14 24 0 6 39 -39 88 -26 28 -51 52 -53 52 -3 0 -11 -7 -18 -15z"/>
<path d="M1400 3891 c0 -5 9 -16 20 -26 19 -18 20 -17 20 2 0 12 -8 23 -20 26
-11 3 -20 2 -20 -2z"/>
<path d="M1130 3865 c0 -6 -15 -17 -34 -23 -19 -7 -37 -19 -40 -27 -7 -19 -1
-19 29 1 14 9 31 14 39 11 18 -7 27 15 15 34 -5 8 -9 9 -9 4z"/>
<path d="M978 3828 c-7 -13 -11 -28 -10 -34 1 -6 -9 -16 -23 -22 -14 -6 -25
-16 -25 -22 0 -14 11 -12 34 5 10 8 23 12 27 9 5 -3 9 0 9 7 0 6 8 18 18 25
11 9 13 13 4 14 -9 0 -11 7 -7 20 9 27 -11 25 -27 -2z"/>
<path d="M1050 3761 c-11 -17 -29 -33 -40 -36 -11 -4 -18 -11 -15 -16 3 -5 -1
-6 -9 -3 -9 3 -17 -3 -21 -17 -7 -20 -8 -20 -17 -6 -5 10 -6 22 -2 29 5 7 3 8
-5 3 -7 -4 -11 -18 -8 -32 3 -16 -1 -27 -15 -34 -12 -7 -17 -17 -13 -28 3 -10
1 -30 -5 -45 -6 -18 -6 -25 0 -21 12 8 12 3 1 -28 -6 -14 -20 -26 -34 -29 -22
-4 -25 -2 -23 23 1 16 11 36 22 46 19 17 29 67 11 56 -5 -3 -6 -11 -3 -18 3
-8 -2 -19 -10 -26 -12 -10 -14 -7 -10 17 2 16 7 37 11 47 9 23 -3 36 -15 17
-6 -8 -10 -10 -10 -4 0 5 5 15 12 22 9 9 8 12 -4 12 -19 0 -35 -19 -38 -45 -4
-33 0 -41 10 -25 8 13 10 13 10 -2 0 -9 -4 -20 -10 -23 -12 -8 -13 -97 -1
-110 8 -10 43 -148 58 -235 7 -36 13 -46 31 -48 19 -3 22 1 20 30 -1 18 2 63
6 101 5 41 4 67 -2 67 -5 0 -9 -8 -9 -17 0 -35 -3 -43 -15 -43 -9 0 -9 3 0 12
9 9 7 17 -10 35 -17 18 -19 26 -10 35 17 17 15 38 -3 38 -8 0 -15 -5 -15 -12
0 -6 -2 -9 -5 -7 -7 8 7 49 17 49 13 0 32 20 52 55 10 17 14 21 11 10 -10 -33
9 -6 45 62 19 37 30 71 27 83 -4 15 0 20 13 20 16 0 60 47 60 64 0 15 -21 3
-40 -23z"/>
<path d="M902 3714 c-7 -8 -16 -12 -21 -10 -4 3 -8 -4 -8 -15 -2 -25 8 -24 30
2 20 23 19 45 -1 23z"/>
<path d="M981 3462 c-1 -8 -8 -11 -20 -7 -18 5 -39 -21 -26 -33 3 -3 5 0 5 6
0 6 6 9 13 7 18 -7 40 10 34 26 -4 11 -6 11 -6 1z"/>
<path d="M1126 3366 c-24 -12 -43 -24 -42 -27 0 -4 -8 -16 -18 -28 -19 -21
-19 -21 7 -21 15 0 27 4 27 9 0 13 60 34 90 32 14 -1 52 -9 85 -18 33 -8 71
-17 85 -18 13 -2 26 -9 28 -14 6 -18 30 -12 47 12 l17 22 -5 -27 c-5 -30 2
-35 21 -16 16 16 16 41 0 32 -10 -6 -10 -4 0 8 10 13 10 17 0 20 -16 6 -71
-26 -61 -35 3 -4 2 -7 -4 -7 -6 0 -18 11 -27 25 -18 28 -21 39 -6 30 6 -3 7 1
3 10 -4 12 -8 13 -13 5 -5 -9 -15 -8 -39 4 -17 9 -31 12 -31 6 0 -12 -47 -13
-54 -1 -12 19 -68 17 -110 -3z"/>
<path d="M1771 3298 c0 -9 -4 -24 -8 -34 -4 -12 -3 -15 5 -10 11 7 17 -6 13
-28 -1 -5 5 -3 14 4 15 12 15 15 2 25 -8 6 -17 22 -20 35 -2 14 -5 17 -6 8z"/>
<path d="M1740 3279 c0 -5 -4 -7 -10 -4 -5 3 -10 2 -10 -4 0 -5 -9 -13 -21
-16 -11 -4 -18 -9 -15 -12 2 -3 1 -16 -5 -30 -8 -21 -6 -24 8 -19 10 2 33 8
52 11 24 5 30 10 20 16 -7 4 -18 4 -25 -2 -8 -6 -14 -4 -18 7 -9 24 -8 26 14
19 11 -3 20 -2 20 4 0 5 3 16 6 25 3 9 1 16 -5 16 -6 0 -11 -5 -11 -11z"/>
<path d="M1469 3254 c-15 -19 7 -27 31 -12 11 7 20 15 20 18 0 11 -41 6 -51
-6z"/>
<path d="M1126 3230 c-27 -3 -51 -10 -53 -17 -3 -9 5 -9 32 -2 20 6 46 9 58 9
12 -1 67 -1 122 0 81 2 93 4 65 11 -36 9 -136 9 -224 -1z"/>
<path d="M787 3186 c-41 -38 -45 -87 -13 -176 14 -41 26 -86 26 -100 0 -35 11
-71 20 -65 4 3 5 -15 3 -38 -5 -39 -2 -46 29 -73 27 -23 36 -42 46 -89 36
-175 45 -200 106 -309 6 -12 17 -25 23 -29 8 -5 11 -22 7 -50 -5 -35 0 -52 26
-102 46 -85 49 -88 128 -155 99 -83 201 -191 202 -213 0 -31 31 -131 45 -145
10 -11 20 0 52 55 23 37 50 77 62 87 12 11 21 28 21 38 0 10 23 42 51 70 63
62 136 156 174 223 16 27 48 74 71 105 50 64 121 201 130 251 4 19 10 39 14
44 5 6 11 28 14 49 4 22 11 46 18 53 13 17 34 260 24 297 -5 19 -12 26 -24 24
-20 -4 -29 -47 -12 -58 13 -8 14 -19 7 -138 -3 -46 -10 -89 -16 -95 -6 -6 -11
-21 -11 -33 0 -13 -4 -26 -10 -29 -5 -3 -10 -15 -10 -26 0 -11 -7 -19 -17 -19
-17 -1 -17 -2 1 -15 16 -12 17 -17 5 -44 -16 -37 -19 -37 -48 -10 -12 12 -25
19 -27 16 -6 -6 36 -47 48 -47 12 0 10 -17 -5 -32 -19 -19 -48 -79 -42 -88 6
-9 -44 -20 -61 -13 -7 2 -14 13 -17 24 -3 10 -11 19 -17 19 -10 0 -10 -3 0
-15 10 -12 8 -16 -11 -24 -22 -8 -21 -9 10 -8 19 0 37 -5 39 -11 2 -7 11 -12
19 -12 10 0 13 -6 9 -16 -3 -9 -6 -18 -6 -20 0 -2 -7 -4 -16 -4 -10 0 -14 6
-10 15 7 18 -3 19 -26 1 -10 -7 -15 -16 -11 -19 3 -4 2 -7 -4 -7 -6 0 -14 -8
-18 -17 -5 -15 -4 -16 6 -5 7 6 17 12 22 12 13 0 -14 -23 -45 -39 -28 -14 -37
-31 -18 -31 6 0 10 5 10 10 0 6 10 10 22 10 21 0 20 -2 -10 -29 -17 -17 -32
-35 -32 -42 0 -15 -79 -118 -130 -170 -45 -47 -55 -60 -81 -106 -12 -21 -24
-40 -28 -43 -3 -3 -12 -17 -20 -32 -10 -20 -18 -25 -26 -18 -7 5 -15 6 -19 2
-4 -4 -7 -2 -5 3 1 6 0 17 -4 25 -3 8 -8 27 -11 41 -3 14 -15 36 -26 49 -11
13 -20 28 -20 33 0 6 -2 8 -5 5 -3 -2 -40 30 -82 71 -43 42 -94 90 -113 106
-58 50 -154 205 -126 205 2 0 44 -40 93 -88 99 -99 158 -133 268 -152 107 -19
225 -2 249 35 l15 22 -42 -14 c-23 -8 -60 -17 -81 -19 -22 -3 -44 -7 -48 -10
-4 -3 -13 -2 -19 1 -6 4 -32 8 -57 10 -26 2 -54 5 -62 7 -8 3 -34 10 -57 17
-24 6 -43 16 -43 21 0 6 -7 10 -15 10 -8 0 -33 18 -56 40 -23 22 -45 40 -48
40 -4 0 -12 10 -20 21 -11 19 -11 21 2 16 8 -3 20 0 26 6 8 8 11 6 12 -8 0
-18 1 -18 11 3 6 12 15 22 20 22 4 0 8 4 8 10 0 5 -6 7 -14 4 -7 -3 -21 3 -31
12 -16 16 -17 16 -13 -6 4 -31 -37 -48 -51 -21 -6 10 -8 21 -6 25 3 3 2 4 -2
1 -11 -8 -33 16 -33 37 0 10 -4 17 -9 14 -19 -12 -18 20 2 52 18 31 18 35 4
49 -14 15 -16 13 -15 -14 1 -16 -4 -38 -10 -49 -11 -18 -11 -18 -12 3 0 12 -5
25 -10 28 -6 4 -8 15 -5 24 7 24 -4 53 -18 44 -6 -3 -7 -1 -3 6 4 6 1 23 -8
36 -9 13 -16 35 -16 47 0 19 -2 20 -11 8 -9 -12 -10 -11 -4 5 3 11 7 22 8 25
3 13 -25 115 -34 127 -6 7 -9 20 -5 28 3 9 2 14 -3 11 -9 -6 -20 73 -22 149
-1 56 27 223 40 239 11 14 5 26 -14 26 -6 0 -11 -8 -12 -17 -3 -28 -20 -103
-37 -162 -11 -39 -12 -59 -5 -67 6 -7 11 -41 11 -76 0 -102 0 -102 -17 -88
-16 14 -20 46 -7 54 9 5 5 34 -24 171 -16 75 -19 118 -12 180 3 29 6 30 32 10
23 -17 46 -20 46 -5 0 8 -50 40 -63 40 -2 0 -16 -11 -30 -24z"/>
<path d="M1396 3175 c17 -25 26 -30 37 -19 6 6 -35 44 -47 44 -4 0 1 -11 10
-25z"/>
<path d="M1206 3180 c-15 -5 -37 -17 -47 -26 -15 -13 -22 -15 -31 -6 -7 7 -20
12 -30 12 -10 0 -27 5 -37 12 -23 14 -53 3 -49 -19 3 -18 39 -27 48 -13 5 8
82 -6 135 -25 19 -6 19 -6 1 9 -12 10 -16 21 -12 33 6 15 8 15 16 3 9 -13 10
-13 11 0 0 8 5 1 10 -16 9 -32 30 -44 80 -44 24 0 26 3 25 43 l-1 42 -45 2
c-25 1 -58 -2 -74 -7z m102 -25 c0 -21 -3 -23 -19 -14 -24 12 -24 26 -1 32 9
3 18 5 18 6 1 0 2 -10 2 -24z"/>
<path d="M1750 3156 c-5 -13 -17 -26 -27 -29 -12 -3 -8 -5 10 -6 15 0 27 4 27
11 0 6 7 20 17 30 15 17 15 18 -1 18 -9 0 -21 -11 -26 -24z"/>
<path d="M1825 3173 c53 -11 122 -36 138 -50 9 -9 17 -12 17 -6 0 29 -79 64
-139 62 -20 -1 -27 -3 -16 -6z"/>
<path d="M1505 3161 c-38 -8 -38 -8 -8 -10 l31 -1 -14 -47 c-25 -82 -11 -87
17 -5 18 55 35 67 80 58 32 -6 34 -8 35 -48 1 -43 41 -164 51 -154 3 3 20 -6
37 -19 26 -20 46 -24 119 -28 48 -3 89 -1 92 3 2 4 -35 10 -84 12 -115 7 -140
20 -162 83 -9 28 -20 71 -24 97 l-7 47 33 -6 c25 -3 31 -2 23 7 -13 13 -165
21 -219 11z"/>
<path d="M1771 3131 c3 -26 39 -66 62 -69 30 -4 34 5 12 34 -9 12 -14 14 -15
6 0 -7 -4 -10 -10 -7 -15 9 -12 22 6 29 18 7 47 -11 39 -24 -12 -19 13 -18 28
1 10 11 22 17 27 14 19 -12 10 -33 -22 -54 -27 -17 -29 -21 -13 -21 11 0 31 8
45 17 17 12 25 13 28 5 2 -7 10 -12 18 -12 8 0 14 -2 14 -5 0 -12 -35 -75 -42
-75 -4 0 -8 -7 -8 -15 0 -39 33 11 78 117 2 4 -1 8 -7 8 -6 0 -11 -8 -11 -17
-1 -13 -9 -8 -33 19 -18 20 -45 42 -61 48 -30 11 -137 12 -135 1z"/>
<path d="M2060 3124 c0 -8 11 -15 25 -15 14 -1 31 -2 37 -3 7 -1 14 6 16 15 2
13 -6 16 -38 16 -27 0 -40 -4 -40 -13z"/>
<path d="M2071 3038 c0 -32 -5 -58 -11 -58 -5 0 -10 6 -11 13 0 6 -4 3 -9 -8
-13 -29 -12 -32 9 -38 14 -3 22 2 30 22 18 49 22 71 12 71 -5 0 -12 12 -14 28
-2 15 -5 1 -6 -30z"/>
<path d="M1335 3054 c-18 -14 -18 -14 1 -14 10 1 30 7 43 14 l24 14 -24 0
c-14 0 -34 -7 -44 -14z"/>
<path d="M1437 3049 c-9 -6 -17 -16 -17 -23 0 -14 -52 -39 -107 -51 -44 -9
-52 -25 -12 -25 41 0 115 37 135 68 12 18 18 21 24 12 5 -7 10 -8 14 -2 10 16
-17 32 -37 21z"/>
<path d="M1700 2847 c0 -16 40 -70 47 -63 3 2 -2 15 -11 28 -8 12 -15 27 -15
33 0 5 -4 11 -10 13 -6 2 -11 -3 -11 -11z"/>
<path d="M1409 2808 c-3 -31 4 -64 17 -82 11 -17 26 -20 86 -22 70 -1 71 -1
50 17 -12 9 -30 16 -39 14 -75 -15 -83 -14 -94 6 -7 14 -7 29 0 50 8 23 7 29
-5 29 -7 0 -14 -6 -15 -12z"/>
<path d="M1674 2718 c-4 -6 -2 -14 4 -16 6 -2 8 -11 5 -20 -6 -15 -5 -15 10
-3 9 7 17 22 17 32 0 21 -25 26 -36 7z"/>
<path d="M1621 2651 c-8 -5 -16 -15 -17 -23 -1 -7 -3 -17 -4 -23 -1 -5 -2 -23
-1 -40 2 -28 2 -29 14 -10 6 11 12 23 12 28 0 4 3 7 8 7 4 0 12 0 18 0 5 0 8
-4 5 -9 -6 -9 28 -21 78 -27 16 -3 35 -9 42 -15 23 -19 35 1 14 23 -11 12 -20
25 -20 29 0 4 -9 5 -20 2 -11 -3 -17 -9 -14 -14 3 -5 2 -9 -3 -9 -14 1 -41 69
-29 74 6 2 2 5 -9 5 -11 1 -29 4 -40 6 -11 3 -26 1 -34 -4z"/>
<path d="M1480 2625 c0 -9 -10 -12 -29 -10 -17 2 -34 -2 -41 -10 -6 -8 -18
-11 -26 -8 -8 3 -14 0 -14 -5 0 -6 -9 -9 -19 -7 -11 2 -25 -3 -32 -11 -6 -8
-9 -14 -5 -14 4 0 0 -10 -8 -22 -8 -13 -14 -40 -14 -60 0 -31 4 -38 20 -38 11
0 22 8 25 20 6 24 5 24 50 5 44 -19 44 -19 36 2 -5 14 -2 15 28 8 45 -11 174
-12 222 -2 31 7 37 5 37 -8 0 -11 6 -15 18 -11 23 8 77 -46 69 -68 -3 -8 -2
-18 4 -22 19 -12 21 5 5 58 -21 74 -46 84 -165 68 -70 -10 -107 -10 -177 0
-49 7 -97 16 -106 21 -12 7 -23 3 -38 -13 -15 -16 -20 -18 -20 -6 0 18 34 51
43 41 4 -3 7 -1 7 5 0 7 7 12 15 12 8 0 15 5 15 11 0 5 5 7 11 4 5 -4 19 1 30
11 18 16 19 16 19 -4 0 -40 60 -12 74 34 5 16 2 23 -14 27 -13 3 -20 0 -20 -8z"/>
<path d="M1535 2631 c-19 -18 14 -89 34 -76 16 9 13 25 -4 25 -19 0 -19 10 0
37 14 20 14 22 -5 20 -12 -1 -23 -3 -25 -6z"/>
<path d="M1803 2495 c-1 -34 11 -48 19 -23 6 16 -3 58 -11 58 -4 0 -7 -16 -8
-35z"/>
<path d="M1283 2402 c-3 -12 -9 -20 -13 -17 -10 6 -24 -34 -15 -43 3 -4 10 0
15 8 9 13 10 13 11 0 0 -8 5 3 10 24 10 41 3 67 -8 28z"/>
<path d="M1078 2405 c-4 -4 -4 -13 -2 -20 3 -7 -2 -15 -10 -18 -24 -10 -19
-22 8 -22 15 0 27 7 30 18 2 9 0 17 -4 17 -5 0 -10 7 -12 16 -2 9 -6 13 -10 9z"/>
<path d="M1470 2374 c0 -8 4 -14 10 -14 5 0 7 -7 4 -15 -4 -9 0 -15 10 -15 9
0 16 -4 16 -9 0 -13 50 -20 50 -7 0 6 6 4 13 -5 12 -16 37 -15 37 3 0 21 26
36 44 26 16 -9 17 -8 6 12 -10 19 -18 22 -52 17 -22 -3 -62 0 -89 7 -41 11
-49 11 -49 0z"/>
<path d="M912 2304 c4 -3 1 -20 -5 -37 -6 -18 -13 -113 -17 -212 -6 -180 -6
-180 -49 -300 -41 -115 -60 -176 -75 -240 -12 -51 10 -14 24 40 8 28 21 67 30
87 13 30 19 35 30 25 10 -10 12 -8 6 7 -4 11 -2 22 5 27 6 4 11 20 11 35 0 16
3 34 7 39 4 6 8 26 10 45 2 19 6 36 10 38 4 1 6 19 4 40 -2 35 -2 35 6 7 l8
-30 11 40 c8 30 9 59 0 115 -12 85 -15 200 -5 248 4 21 3 32 -5 32 -6 0 -9 -3
-6 -6z"/>
<path d="M1370 2221 c-7 -14 -7 -22 0 -26 6 -4 8 -10 5 -15 -3 -5 0 -12 6 -16
8 -4 9 -3 5 4 -4 7 -1 12 6 12 10 0 10 2 -1 9 -8 5 -11 16 -6 30 8 26 -1 27
-15 2z"/>
<path d="M1868 2163 c-4 -30 22 -159 45 -233 14 -42 15 -43 16 -14 1 17 -6 48
-14 67 -18 44 -21 101 -4 77 9 -12 10 -12 5 3 -3 10 -6 21 -6 23 0 3 -4 3 -9
0 -5 -3 -9 0 -8 7 0 6 -1 31 -1 55 -2 47 -19 57 -24 15z"/>
<path d="M1500 2125 c27 -29 32 -28 23 3 -3 14 -13 22 -26 22 -20 0 -20 -1 3
-25z"/>
<path d="M2678 2046 c-23 -17 -108 -183 -107 -209 0 -13 20 19 47 74 26 54 56
106 66 118 22 24 19 35 -6 17z"/>
<path d="M1920 2033 c0 -23 92 -297 106 -310 8 -8 14 -22 14 -32 0 -9 4 -21 9
-26 17 -18 61 -168 56 -189 -3 -12 -2 -15 1 -8 8 16 24 5 24 -16 0 -9 14 -51
31 -92 46 -111 59 -156 48 -167 -7 -7 -4 -17 8 -28 17 -17 18 -17 21 -1 2 9
-1 31 -7 48 -6 17 -11 41 -11 54 0 12 -10 44 -21 71 -12 26 -50 127 -84 223
-79 217 -194 498 -195 473z"/>
<path d="M1751 1943 c-13 -47 -14 -63 -1 -43 7 11 10 11 10 2 0 -7 4 -11 9 -7
12 7 41 -34 41 -57 0 -11 17 -26 45 -39 25 -12 52 -33 60 -48 l14 -26 -3 33
c-2 27 -10 37 -42 53 -39 21 -83 65 -84 84 -1 26 -22 85 -30 85 -5 0 -14 -17
-19 -37z"/>
<path d="M1131 1937 c-11 -18 -23 -52 -27 -74 -7 -46 -31 -73 -90 -103 -61
-31 -64 -29 -66 53 l-1 72 -6 -65 c-9 -102 24 -124 103 -66 17 13 38 26 47 29
10 3 21 21 27 39 30 102 37 121 49 125 13 5 8 23 -7 23 -5 0 -18 -15 -29 -33z"/>
<path d="M725 1920 c-4 -6 -21 -21 -39 -32 -27 -17 -28 -19 -6 -13 28 8 67 41
58 50 -3 4 -9 1 -13 -5z"/>
<path d="M2057 1905 c20 -47 83 -164 93 -170 6 -4 -10 33 -36 82 -45 85 -74
130 -57 88z"/>
<path d="M75 1860 c-18 -20 -17 -20 11 -21 16 -1 32 -1 36 0 3 0 26 -33 50
-74 40 -70 66 -98 51 -57 -12 33 -107 172 -118 172 -7 0 -20 -9 -30 -20z"/>
<path d="M425 1840 c-33 -4 -49 -8 -35 -9 42 -5 112 0 134 9 18 8 17 9 -9 8
-16 -1 -57 -4 -90 -8z"/>
<path d="M297 1813 c9 -25 24 -43 35 -43 5 0 8 6 5 13 -2 6 -10 11 -16 10 -15
-4 -14 24 2 30 6 3 2 6 -10 6 -17 1 -21 -3 -16 -16z"/>
<path d="M2159 1710 c-1 -8 0 -19 1 -25 1 -5 3 -22 5 -36 6 -44 186 -319 267
-407 40 -44 88 -80 88 -66 0 5 -9 15 -20 22 -11 7 -32 37 -45 66 -13 29 -42
75 -62 102 -38 48 -73 99 -83 119 -3 6 -23 38 -44 73 -36 57 -40 60 -53 44
-13 -15 -13 -15 -4 5 14 28 4 54 -17 46 -12 -5 -14 -2 -9 11 4 10 0 27 -8 39
-11 15 -15 17 -16 7z"/>
<path d="M2959 1592 c-65 -70 -73 -87 -14 -30 32 32 57 60 54 62 -3 3 -21 -11
-40 -32z"/>
<path d="M2930 1521 c-60 -59 -87 -79 -59 -44 12 15 12 16 -1 8 -28 -17 -92
-80 -101 -100 -6 -11 8 0 29 24 22 24 44 41 50 37 17 -10 163 117 149 130 -3
3 -33 -22 -67 -55z"/>
<path d="M704 1532 c-13 -8 -38 -81 -31 -89 3 -2 15 17 26 43 22 49 23 58 5
46z"/>
<path d="M2509 1506 c35 -36 49 -40 37 -11 -3 9 -10 13 -16 10 -5 -3 -10 -2
-10 2 0 5 -10 14 -22 22 -16 9 -12 2 11 -23z"/>
<path d="M1561 1520 c-1 -8 5 -32 13 -55 8 -22 18 -53 22 -70 l8 -30 5 40 c4
25 2 44 -6 50 -6 6 -18 26 -26 45 -9 19 -16 28 -16 20z"/>
<path d="M0 1513 c0 -5 14 -28 31 -53 16 -25 39 -62 50 -83 11 -21 53 -74 94
-118 41 -45 91 -105 110 -135 20 -30 41 -53 48 -51 11 2 15 -17 20 -90 1 -17
12 -45 23 -60 17 -23 32 -62 39 -103 0 -3 5 -13 11 -24 8 -14 13 -15 19 -6 4
7 4 15 -1 19 -10 6 -43 93 -49 126 -2 11 -7 38 -10 59 -5 29 -9 36 -16 25 -7
-11 -9 -10 -10 6 -1 11 -1 24 0 29 2 9 -40 67 -68 94 -10 9 -40 44 -67 77 -26
33 -62 74 -79 90 -18 17 -56 69 -85 118 -51 84 -60 96 -60 80z"/>
<path d="M2785 1453 c-76 -82 -83 -98 -12 -27 75 75 91 94 81 93 -5 0 -36 -30
-69 -66z"/>
<path d="M2375 1481 c-3 -5 0 -13 7 -18 17 -10 48 -15 48 -7 0 8 -32 33 -42
34 -4 0 -9 -4 -13 -9z"/>
<path d="M628 1418 c-13 -18 -28 -42 -32 -53 -6 -16 -9 -17 -17 -5 -9 13 -10
13 -6 0 2 -8 -10 -42 -27 -75 -40 -78 -48 -97 -37 -90 5 3 35 51 66 107 31 56
64 112 72 125 23 35 9 28 -19 -9z"/>
<path d="M2499 1297 c36 -36 67 -64 69 -62 6 5 -37 49 -93 96 -24 19 -14 6 24
-34z"/>
<path d="M2730 1326 c0 -9 -5 -14 -10 -11 -6 4 -10 3 -9 -2 1 -4 0 -15 -3 -23
-3 -8 -12 -49 -19 -90 -8 -45 -15 -67 -19 -55 -7 26 -33 65 -42 65 -17 0 -6
-29 27 -76 46 -64 60 -106 47 -143 -6 -16 -7 -46 -2 -70 6 -32 4 -44 -6 -48
-14 -5 -20 -33 -7 -33 4 0 17 12 28 27 19 23 22 24 28 9 4 -9 3 -15 -2 -12 -5
3 -11 -7 -15 -22 -4 -20 8 -53 51 -137 31 -60 64 -121 75 -134 10 -14 16 -32
13 -43 -6 -18 14 -88 28 -99 4 -3 10 -21 12 -40 3 -19 9 -35 15 -37 5 -2 10
-10 10 -18 0 -8 6 -14 13 -14 22 0 13 77 -12 106 -11 13 -21 28 -21 33 0 5 -6
11 -14 14 -9 4 -12 14 -9 27 6 21 6 21 32 -4 36 -35 51 -33 19 2 -36 39 -118
162 -118 177 0 7 -4 15 -8 17 -5 2 -25 31 -45 65 -44 76 -28 93 30 32 21 -22
52 -47 68 -56 l30 -15 -28 27 c-16 15 -45 53 -65 84 -19 31 -48 71 -64 89 -32
38 -35 59 -10 78 14 11 15 15 3 23 -7 5 -10 14 -6 20 4 7 -1 23 -10 38 -23 35
-22 84 4 177 12 43 19 81 16 84 -3 3 -5 -2 -5 -12z"/>
<path d="M2928 1252 c-58 -21 -64 -27 -27 -28 15 -1 26 3 23 7 -3 5 1 7 8 4 7
-3 24 4 38 15 30 24 20 24 -42 2z"/>
<path d="M0 1213 c0 -14 123 -83 147 -83 24 0 135 -74 170 -114 27 -30 32 -33
18 -11 -37 60 -109 111 -218 156 -39 16 -82 37 -94 45 -13 8 -23 11 -23 7z"/>
<path d="M2221 1132 c0 -4 7 -23 14 -42 l14 -35 -2 37 c-1 21 -8 40 -14 43 -7
2 -13 1 -12 -3z"/>
<path d="M2360 1025 c0 -19 43 -145 50 -145 10 0 0 49 -11 56 -5 3 -9 20 -9
38 0 19 -7 39 -15 46 -8 7 -15 9 -15 5z"/>
<path d="M1680 900 c0 -16 4 -30 9 -30 5 0 9 14 9 30 -1 17 -5 30 -10 30 -4 0
-8 -13 -8 -30z"/>
<path d="M1530 827 c-24 -11 -24 -11 15 -15 47 -4 102 5 110 18 9 14 -94 11
-125 -3z"/>
<path d="M2433 788 c14 -35 47 -51 47 -23 0 16 -37 54 -53 55 -4 0 -1 -15 6
-32z"/>
<path d="M2649 750 c-25 -27 -44 -52 -42 -54 3 -2 20 5 39 16 37 22 57 50 52
74 -2 10 -19 -2 -49 -36z"/>
<path d="M1180 722 c0 -29 4 -52 9 -52 8 0 3 90 -5 99 -2 2 -4 -19 -4 -47z"/>
<path d="M440 736 c0 -14 5 -17 23 -12 12 3 50 6 85 6 35 0 61 4 58 9 -6 9
-110 6 -135 -4 -8 -3 -18 0 -23 7 -5 9 -8 8 -8 -6z"/>
<path d="M1704 713 c3 -21 6 -58 6 -83 0 -33 5 -48 19 -57 17 -10 18 -9 13 10
-2 12 -9 27 -14 33 -10 13 -6 99 5 110 13 14 7 24 -14 24 -19 0 -21 -4 -15
-37z"/>
<path d="M2465 693 c4 -10 10 -26 12 -36 4 -13 11 -16 27 -11 35 10 45 27 13
22 -23 -5 -30 -1 -37 18 -5 13 -12 24 -16 24 -3 0 -3 -8 1 -17z"/>
<path d="M2722 688 c-1 -16 -6 -28 -10 -28 -4 0 -9 -11 -10 -25 -1 -14 -10
-50 -21 -80 -11 -30 -16 -55 -13 -55 4 0 1 -4 -6 -9 -24 -15 -15 -72 36 -226
27 -82 55 -176 62 -208 15 -66 35 -78 25 -14 -8 48 -79 267 -101 308 -21 42
-17 86 16 195 18 58 29 113 27 134 -3 28 -4 30 -5 8z"/>
<path d="M689 683 c-1 -4 -1 -11 -1 -14 1 -3 -11 -4 -26 -1 -24 4 -26 3 -12
-12 19 -19 90 -11 90 10 0 8 -4 14 -10 14 -5 0 -10 -4 -10 -10 0 -5 -5 -10
-11 -10 -5 0 -8 4 -4 9 3 5 1 12 -5 16 -5 3 -11 3 -11 -2z"/>
<path d="M689 633 c-22 -3 -26 -8 -21 -26 9 -35 34 -49 55 -30 20 18 23 64 5
62 -7 -1 -25 -4 -39 -6z"/>
<path d="M2500 596 c0 -21 21 -31 31 -15 5 8 3 17 -4 21 -18 12 -27 10 -27 -6z"/>
<path d="M1580 589 c-38 -5 -40 -7 -15 -9 41 -5 88 -1 97 8 9 9 -22 9 -82 1z"/>
<path d="M1710 543 c0 -18 5 -35 10 -38 6 -3 10 -17 10 -31 0 -13 5 -24 10
-24 14 0 1 79 -16 105 -13 18 -14 17 -14 -12z"/>
<path d="M835 504 c-13 -10 -11 -12 12 -11 15 1 33 7 40 13 17 16 -30 13 -52
-2z"/>
<path d="M436 500 c-3 -8 -7 -32 -9 -53 -2 -22 -17 -57 -35 -83 -36 -51 -40
-66 -14 -63 35 3 38 -2 39 -68 0 -64 -2 -71 -43 -130 -24 -35 -44 -73 -44 -85
0 -18 7 -11 30 27 17 28 40 62 51 77 19 23 22 39 21 115 0 49 -1 93 -2 98 -5
23 1 65 8 65 5 0 14 -11 20 -24 6 -13 25 -41 43 -62 19 -22 24 -30 11 -20 -29
25 -28 11 3 -30 14 -18 25 -39 25 -46 1 -20 40 -102 46 -95 3 3 -1 18 -9 34
-8 15 -18 39 -22 53 l-8 24 39 -28 c22 -16 63 -54 93 -85 63 -65 98 -91 126
-91 11 0 33 -7 49 -15 33 -17 48 -20 26 -4 -11 8 -9 9 10 3 35 -11 692 -16
686 -5 -3 5 -140 8 -303 8 -164 0 -311 3 -328 7 -16 3 -44 8 -60 10 -92 12
-114 25 -226 134 -60 60 -109 111 -109 115 0 7 -59 95 -77 115 -15 16 -27 57
-20 69 2 4 1 17 -3 28 -6 16 -9 17 -14 5z"/>
<path d="M2904 315 c-3 -14 -4 -32 -1 -40 4 -8 2 -17 -3 -20 -6 -4 -10 8 -10
27 -1 32 -1 32 -16 13 -8 -11 -18 -19 -22 -17 -16 7 -12 -30 4 -43 15 -10 25
-10 61 2 39 13 43 18 43 46 -1 30 -2 31 -15 13 -18 -24 -37 -11 -29 20 3 13 4
24 0 24 -3 0 -8 -11 -12 -25z"/>
<path d="M2220 240 c-12 -11 -31 -22 -41 -25 -11 -4 -19 -11 -19 -16 0 -5 -6
-9 -13 -9 -8 0 -22 -9 -31 -19 -10 -11 -25 -22 -35 -24 -9 -2 -2 -3 14 -1 17
3 36 12 43 21 6 9 12 12 12 6 0 -8 7 -8 25 0 14 7 25 18 25 25 0 7 3 11 8 8 4
-2 15 9 24 25 20 34 19 36 -12 9z"/>
<path d="M2494 83 c-49 -52 -70 -83 -56 -83 12 0 86 80 101 109 18 34 3 25
-45 -26z"/>
<path d="M1855 100 c-3 -5 -15 -10 -25 -10 -37 0 -120 -43 -120 -62 0 -23 12
-23 27 1 6 10 23 21 38 25 47 12 132 55 108 56 -12 0 -25 -4 -28 -10z"/>
</g>
</svg>
